<?xml version="1.0" encoding="UTF-8" standalone="no"?>
<!DOCTYPE svg PUBLIC "-//W3C//DTD SVG 1.1//EN"
 "http://www.w3.org/Graphics/SVG/1.1/DTD/svg11.dtd">
<!-- Generated by graphviz version 2.40.1 (20161225.0304)
 -->
<!-- Title: %3 Pages: 1 -->
<svg width="1700pt" height="404pt"
 viewBox="0.00 0.00 1700.42 404.00" xmlns="http://www.w3.org/2000/svg" xmlns:xlink="http://www.w3.org/1999/xlink">
<g id="graph0" class="graph" transform="scale(1 1) rotate(0) translate(4 400)">
<title>%3</title>
<polygon fill="#ffffff" stroke="transparent" points="-4,4 -4,-400 1696.4194,-400 1696.4194,4 -4,4"/>
<!-- detGroupSpans -->
<g id="node1" class="node">
<title>detGroupSpans</title>
<ellipse fill="none" stroke="#000000" cx="821.9233" cy="-306" rx="64.7718" ry="18"/>
<text text-anchor="middle" x="821.9233" y="-301.8" font-family="Times,serif" font-size="14.00" fill="#000000">detGroupSpans</text>
</g>
<!-- overlappingSpans -->
<g id="node2" class="node">
<title>overlappingSpans</title>
<ellipse fill="none" stroke="#000000" cx="821.9233" cy="-378" rx="73.4498" ry="18"/>
<text text-anchor="middle" x="821.9233" y="-373.8" font-family="Times,serif" font-size="14.00" fill="#000000">overlappingSpans</text>
</g>
<!-- detGroupSpans&#45;&gt;overlappingSpans -->
<g id="edge1" class="edge">
<title>detGroupSpans&#45;&gt;overlappingSpans</title>
<path fill="none" stroke="#000000" stroke-width="3" d="M821.9233,-324.1686C821.9233,-331.869 821.9233,-341.0257 821.9233,-349.5834"/>
<polygon fill="#000000" stroke="#000000" stroke-width="3" points="818.4234,-349.5867 821.9233,-359.5867 825.4234,-349.5868 818.4234,-349.5867"/>
</g>
<!-- phiRangesOverlap -->
<g id="node3" class="node">
<title>phiRangesOverlap</title>
<ellipse fill="none" stroke="#000000" cx="75.9233" cy="-234" rx="75.8466" ry="18"/>
<text text-anchor="middle" x="75.9233" y="-229.8" font-family="Times,serif" font-size="14.00" fill="#000000">phiRangesOverlap</text>
</g>
<!-- phiRangesOverlap&#45;&gt;detGroupSpans -->
<g id="edge2" class="edge">
<title>phiRangesOverlap&#45;&gt;detGroupSpans</title>
<path fill="none" stroke="#000000" d="M130.6083,-246.6489C140.651,-248.6669 151.0723,-250.5605 160.9233,-252 372.5782,-282.928 625.1426,-297.4055 747.7773,-303.021"/>
<polygon fill="#000000" stroke="#000000" points="747.6605,-306.5192 757.8081,-303.4738 747.9762,-299.5263 747.6605,-306.5192"/>
</g>
<!-- getZAxisOverlapRangeBarrel -->
<g id="node4" class="node">
<title>getZAxisOverlapRangeBarrel</title>
<ellipse fill="none" stroke="#000000" cx="285.9233" cy="-234" rx="116.3794" ry="18"/>
<text text-anchor="middle" x="285.9233" y="-229.8" font-family="Times,serif" font-size="14.00" fill="#000000">getZAxisOverlapRangeBarrel</text>
</g>
<!-- getZAxisOverlapRangeBarrel&#45;&gt;detGroupSpans -->
<g id="edge3" class="edge">
<title>getZAxisOverlapRangeBarrel&#45;&gt;detGroupSpans</title>
<path fill="none" stroke="#000000" d="M370.6249,-246.3417C384.1013,-248.2636 397.8911,-250.2056 410.9233,-252 531.0846,-268.5448 671.1716,-286.7106 752.8643,-297.1917"/>
<polygon fill="#000000" stroke="#000000" points="752.6558,-300.6935 763.0197,-298.4936 753.546,-293.7503 752.6558,-300.6935"/>
</g>
<!-- getZAxisOverlapRangeEndcap -->
<g id="node5" class="node">
<title>getZAxisOverlapRangeEndcap</title>
<ellipse fill="none" stroke="#000000" cx="540.9233" cy="-234" rx="120.7227" ry="18"/>
<text text-anchor="middle" x="540.9233" y="-229.8" font-family="Times,serif" font-size="14.00" fill="#000000">getZAxisOverlapRangeEndcap</text>
</g>
<!-- getZAxisOverlapRangeEndcap&#45;&gt;detGroupSpans -->
<g id="edge4" class="edge">
<title>getZAxisOverlapRangeEndcap&#45;&gt;detGroupSpans</title>
<path fill="none" stroke="#000000" d="M601.8961,-249.6229C650.1188,-261.9789 716.9781,-279.1101 764.307,-291.2371"/>
<polygon fill="#000000" stroke="#000000" points="763.5405,-294.6537 774.0963,-293.7454 765.278,-287.8728 763.5405,-294.6537"/>
</g>
<!-- getZAxisOverlapRangeBarrelEndcap -->
<g id="node6" class="node">
<title>getZAxisOverlapRangeBarrelEndcap</title>
<ellipse fill="none" stroke="#000000" cx="821.9233" cy="-234" rx="142.9143" ry="18"/>
<text text-anchor="middle" x="821.9233" y="-229.8" font-family="Times,serif" font-size="14.00" fill="#000000">getZAxisOverlapRangeBarrelEndcap</text>
</g>
<!-- getZAxisOverlapRangeBarrelEndcap&#45;&gt;detGroupSpans -->
<g id="edge5" class="edge">
<title>getZAxisOverlapRangeBarrelEndcap&#45;&gt;detGroupSpans</title>
<path fill="none" stroke="#000000" d="M821.9233,-252.1686C821.9233,-259.869 821.9233,-269.0257 821.9233,-277.5834"/>
<polygon fill="#000000" stroke="#000000" points="818.4234,-277.5867 821.9233,-287.5867 825.4234,-277.5868 818.4234,-277.5867"/>
</g>
<!-- zAxisIntersection -->
<g id="node7" class="node">
<title>zAxisIntersection</title>
<ellipse fill="none" stroke="#000000" cx="540.9233" cy="-162" rx="72.4635" ry="18"/>
<text text-anchor="middle" x="540.9233" y="-157.8" font-family="Times,serif" font-size="14.00" fill="#000000">zAxisIntersection</text>
</g>
<!-- zAxisIntersection&#45;&gt;getZAxisOverlapRangeBarrel -->
<g id="edge6" class="edge">
<title>zAxisIntersection&#45;&gt;getZAxisOverlapRangeBarrel</title>
<path fill="none" stroke="#000000" d="M492.9597,-175.5426C453.1237,-186.7905 396.0407,-202.908 351.8986,-215.3717"/>
<polygon fill="#000000" stroke="#000000" points="350.791,-212.0475 342.1184,-218.1332 352.6932,-218.7841 350.791,-212.0475"/>
</g>
<!-- zAxisIntersection&#45;&gt;getZAxisOverlapRangeEndcap -->
<g id="edge7" class="edge">
<title>zAxisIntersection&#45;&gt;getZAxisOverlapRangeEndcap</title>
<path fill="none" stroke="#000000" d="M540.9233,-180.1686C540.9233,-187.869 540.9233,-197.0257 540.9233,-205.5834"/>
<polygon fill="#000000" stroke="#000000" points="537.4234,-205.5867 540.9233,-215.5867 544.4234,-205.5868 537.4234,-205.5867"/>
</g>
<!-- zAxisIntersection&#45;&gt;getZAxisOverlapRangeBarrelEndcap -->
<g id="edge8" class="edge">
<title>zAxisIntersection&#45;&gt;getZAxisOverlapRangeBarrelEndcap</title>
<path fill="none" stroke="#000000" d="M591.485,-174.9553C635.4071,-186.2094 699.5593,-202.647 749.0295,-215.3226"/>
<polygon fill="#000000" stroke="#000000" points="748.1616,-218.7132 758.7174,-217.8049 749.8991,-211.9323 748.1616,-218.7132"/>
</g>
<!-- badDetGroupsBarrel -->
<g id="node8" class="node">
<title>badDetGroupsBarrel</title>
<ellipse fill="none" stroke="#000000" cx="1065.9233" cy="-234" rx="83.5564" ry="18"/>
<text text-anchor="middle" x="1065.9233" y="-229.8" font-family="Times,serif" font-size="14.00" fill="#000000">badDetGroupsBarrel</text>
</g>
<!-- badDetGroupsBarrel&#45;&gt;detGroupSpans -->
<g id="edge9" class="edge">
<title>badDetGroupsBarrel&#45;&gt;detGroupSpans</title>
<path fill="none" stroke="#000000" stroke-width="3" d="M1016.5462,-248.5703C975.8082,-260.5913 918.0843,-277.6246 876.0854,-290.0177"/>
<polygon fill="#000000" stroke="#000000" stroke-width="3" points="874.905,-286.7168 866.3044,-292.9039 876.8861,-293.4306 874.905,-286.7168"/>
</g>
<!-- badDetGroupsEndcap -->
<g id="node9" class="node">
<title>badDetGroupsEndcap</title>
<ellipse fill="none" stroke="#000000" cx="1255.9233" cy="-234" rx="88.3997" ry="18"/>
<text text-anchor="middle" x="1255.9233" y="-229.8" font-family="Times,serif" font-size="14.00" fill="#000000">badDetGroupsEndcap</text>
</g>
<!-- badDetGroupsEndcap&#45;&gt;detGroupSpans -->
<g id="edge10" class="edge">
<title>badDetGroupsEndcap&#45;&gt;detGroupSpans</title>
<path fill="none" stroke="#000000" stroke-width="3" d="M1191.0026,-246.2753C1180.2936,-248.2346 1169.3029,-250.2056 1158.9233,-252 1065.3446,-268.1774 956.8491,-285.2643 888.7934,-295.781"/>
<polygon fill="#000000" stroke="#000000" stroke-width="3" points="887.989,-292.3636 878.6397,-297.3477 889.0565,-299.2817 887.989,-292.3636"/>
</g>
<!-- getSpan -->
<g id="node10" class="node">
<title>getSpan</title>
<ellipse fill="none" stroke="#000000" cx="1402.9233" cy="-234" rx="38.6955" ry="18"/>
<text text-anchor="middle" x="1402.9233" y="-229.8" font-family="Times,serif" font-size="14.00" fill="#000000">getSpan</text>
</g>
<!-- getSpan&#45;&gt;detGroupSpans -->
<g id="edge11" class="edge">
<title>getSpan&#45;&gt;detGroupSpans</title>
<path fill="none" stroke="#000000" d="M1373.6679,-245.8782C1366.9451,-248.2286 1359.7607,-250.4462 1352.9233,-252 1192.8948,-288.3658 1000.1491,-300.2596 896.5432,-304.1367"/>
<polygon fill="#000000" stroke="#000000" points="896.3619,-300.6408 886.4941,-304.4979 896.6135,-307.6363 896.3619,-300.6408"/>
</g>
<!-- getPhiSpanBarrel -->
<g id="node11" class="node">
<title>getPhiSpanBarrel</title>
<ellipse fill="none" stroke="#000000" cx="1235.9233" cy="-162" rx="72.4808" ry="18"/>
<text text-anchor="middle" x="1235.9233" y="-157.8" font-family="Times,serif" font-size="14.00" fill="#000000">getPhiSpanBarrel</text>
</g>
<!-- getPhiSpanBarrel&#45;&gt;getSpan -->
<g id="edge12" class="edge">
<title>getPhiSpanBarrel&#45;&gt;getSpan</title>
<path fill="none" stroke="#000000" d="M1272.1598,-177.6229C1299.6197,-189.4619 1337.248,-205.6849 1365.0916,-217.6893"/>
<polygon fill="#000000" stroke="#000000" points="1363.9308,-221.0003 1374.4994,-221.7454 1366.7022,-214.5722 1363.9308,-221.0003"/>
</g>
<!-- getPhiSpanEndcap -->
<g id="node12" class="node">
<title>getPhiSpanEndcap</title>
<ellipse fill="none" stroke="#000000" cx="1402.9233" cy="-162" rx="76.8244" ry="18"/>
<text text-anchor="middle" x="1402.9233" y="-157.8" font-family="Times,serif" font-size="14.00" fill="#000000">getPhiSpanEndcap</text>
</g>
<!-- getPhiSpanEndcap&#45;&gt;getSpan -->
<g id="edge13" class="edge">
<title>getPhiSpanEndcap&#45;&gt;getSpan</title>
<path fill="none" stroke="#000000" d="M1402.9233,-180.1686C1402.9233,-187.869 1402.9233,-197.0257 1402.9233,-205.5834"/>
<polygon fill="#000000" stroke="#000000" points="1399.4234,-205.5867 1402.9233,-215.5867 1406.4234,-205.5868 1399.4234,-205.5867"/>
</g>
<!-- phiRangesOverlap_ -->
<g id="node13" class="node">
<title>phiRangesOverlap_</title>
<ellipse fill="none" stroke="#000000" cx="1402.9233" cy="-90" rx="80.1903" ry="18"/>
<text text-anchor="middle" x="1402.9233" y="-85.8" font-family="Times,serif" font-size="14.00" fill="#000000">phiRangesOverlap_</text>
</g>
<!-- phiRangesOverlap_&#45;&gt;getPhiSpanEndcap -->
<g id="edge14" class="edge">
<title>phiRangesOverlap_&#45;&gt;getPhiSpanEndcap</title>
<path fill="none" stroke="#000000" d="M1402.9233,-108.1686C1402.9233,-115.869 1402.9233,-125.0257 1402.9233,-133.5834"/>
<polygon fill="#000000" stroke="#000000" points="1399.4234,-133.5867 1402.9233,-143.5867 1406.4234,-133.5868 1399.4234,-133.5867"/>
</g>
<!-- getZSpan -->
<g id="node14" class="node">
<title>getZSpan</title>
<ellipse fill="none" stroke="#000000" cx="1541.9233" cy="-162" rx="43.9992" ry="18"/>
<text text-anchor="middle" x="1541.9233" y="-157.8" font-family="Times,serif" font-size="14.00" fill="#000000">getZSpan</text>
</g>
<!-- getZSpan&#45;&gt;getSpan -->
<g id="edge15" class="edge">
<title>getZSpan&#45;&gt;getSpan</title>
<path fill="none" stroke="#000000" d="M1514.4614,-176.2249C1492.5294,-187.5853 1461.651,-203.5799 1437.9425,-215.8605"/>
<polygon fill="#000000" stroke="#000000" points="1436.1875,-212.8279 1428.9178,-220.5352 1439.4071,-219.0435 1436.1875,-212.8279"/>
</g>
<!-- getRSpan -->
<g id="node15" class="node">
<title>getRSpan</title>
<ellipse fill="none" stroke="#000000" cx="1647.9233" cy="-162" rx="44.4923" ry="18"/>
<text text-anchor="middle" x="1647.9233" y="-157.8" font-family="Times,serif" font-size="14.00" fill="#000000">getRSpan</text>
</g>
<!-- getRSpan&#45;&gt;getSpan -->
<g id="edge16" class="edge">
<title>getRSpan&#45;&gt;getSpan</title>
<path fill="none" stroke="#000000" d="M1614.0823,-173.7924C1607.7356,-175.9189 1601.1417,-178.0711 1594.9233,-180 1544.3754,-195.6797 1485.7463,-211.8852 1446.7035,-222.3995"/>
<polygon fill="#000000" stroke="#000000" points="1445.4766,-219.1049 1436.7257,-225.0775 1447.2912,-225.8656 1445.4766,-219.1049"/>
</g>
<!-- reachableDetGroup -->
<g id="node16" class="node">
<title>reachableDetGroup</title>
<ellipse fill="none" stroke="#000000" cx="1065.9233" cy="-162" rx="79.1867" ry="18"/>
<text text-anchor="middle" x="1065.9233" y="-157.8" font-family="Times,serif" font-size="14.00" fill="#000000">reachableDetGroup</text>
</g>
<!-- reachableDetGroup&#45;&gt;badDetGroupsBarrel -->
<g id="edge17" class="edge">
<title>reachableDetGroup&#45;&gt;badDetGroupsBarrel</title>
<path fill="none" stroke="#000000" stroke-width="3" d="M1065.9233,-180.1686C1065.9233,-187.869 1065.9233,-197.0257 1065.9233,-205.5834"/>
<polygon fill="#000000" stroke="#000000" stroke-width="3" points="1062.4234,-205.5867 1065.9233,-215.5867 1069.4234,-205.5868 1062.4234,-205.5867"/>
</g>
<!-- reachableDetGroup&#45;&gt;badDetGroupsEndcap -->
<g id="edge18" class="edge">
<title>reachableDetGroup&#45;&gt;badDetGroupsEndcap</title>
<path fill="none" stroke="#000000" stroke-width="3" d="M1106.683,-177.4458C1135.2165,-188.2585 1173.5674,-202.7915 1204.2471,-214.4174"/>
<polygon fill="#000000" stroke="#000000" stroke-width="3" points="1203.325,-217.8108 1213.9163,-218.0816 1205.8055,-211.2651 1203.325,-217.8108"/>
</g>
<!-- badAdjecentDetsBarrel -->
<g id="node17" class="node">
<title>badAdjecentDetsBarrel</title>
<ellipse fill="none" stroke="#000000" cx="927.9233" cy="-90" rx="93.2015" ry="18"/>
<text text-anchor="middle" x="927.9233" y="-85.8" font-family="Times,serif" font-size="14.00" fill="#000000">badAdjecentDetsBarrel</text>
</g>
<!-- badAdjecentDetsBarrel&#45;&gt;reachableDetGroup -->
<g id="edge19" class="edge">
<title>badAdjecentDetsBarrel&#45;&gt;reachableDetGroup</title>
<path fill="none" stroke="#000000" stroke-width="3" d="M960.2781,-106.8808C979.709,-117.0186 1004.6018,-130.0062 1025.343,-140.8277"/>
<polygon fill="#000000" stroke="#000000" stroke-width="3" points="1023.7622,-143.9506 1034.2471,-145.4733 1027.0002,-137.7445 1023.7622,-143.9506"/>
</g>
<!-- badAdjecentDetsEndcap -->
<g id="node18" class="node">
<title>badAdjecentDetsEndcap</title>
<ellipse fill="none" stroke="#000000" cx="1136.9233" cy="-90" rx="97.5448" ry="18"/>
<text text-anchor="middle" x="1136.9233" y="-85.8" font-family="Times,serif" font-size="14.00" fill="#000000">badAdjecentDetsEndcap</text>
</g>
<!-- badAdjecentDetsEndcap&#45;&gt;reachableDetGroup -->
<g id="edge20" class="edge">
<title>badAdjecentDetsEndcap&#45;&gt;reachableDetGroup</title>
<path fill="none" stroke="#000000" stroke-width="3" d="M1119.3727,-107.7978C1110.6028,-116.6912 1099.8497,-127.5958 1090.2936,-137.2865"/>
<polygon fill="#000000" stroke="#000000" stroke-width="3" points="1087.8013,-134.8291 1083.272,-144.407 1092.7856,-139.7441 1087.8013,-134.8291"/>
</g>
<!-- phiRangesOverlap__ -->
<g id="node19" class="node">
<title>phiRangesOverlap__</title>
<ellipse fill="none" stroke="#000000" cx="1136.9233" cy="-18" rx="84.5341" ry="18"/>
<text text-anchor="middle" x="1136.9233" y="-13.8" font-family="Times,serif" font-size="14.00" fill="#000000">phiRangesOverlap__</text>
</g>
<!-- phiRangesOverlap__&#45;&gt;badAdjecentDetsEndcap -->
<g id="edge21" class="edge">
<title>phiRangesOverlap__&#45;&gt;badAdjecentDetsEndcap</title>
<path fill="none" stroke="#000000" d="M1136.9233,-36.1686C1136.9233,-43.869 1136.9233,-53.0257 1136.9233,-61.5834"/>
<polygon fill="#000000" stroke="#000000" points="1133.4234,-61.5867 1136.9233,-71.5867 1140.4234,-61.5868 1133.4234,-61.5867"/>
</g>
</g>
</svg>
